<svg width="230" height="40" viewBox="0 0 230 40" fill="none" xmlns="http://www.w3.org/2000/svg">
<path fill-rule="evenodd" clip-rule="evenodd" d="M21.7013 9.27454C20.4118 9.27454 19.135 9.52781 17.9436 10.0199C16.7524 10.512 15.6698 11.2333 14.7581 12.1425C13.8463 13.0518 13.1231 14.1313 12.6296 15.3193C12.2837 16.1519 12.0555 17.0264 11.9499 17.9179C11.867 18.6184 11.4831 19.2654 10.8519 19.5802L8.98478 20.5112C8.35347 20.8259 7.9393 21.4729 8.02227 22.1735C8.12786 23.0648 8.35607 23.9394 8.70192 24.7721C9.19538 25.9601 9.91868 27.0395 10.8304 27.9487C11.7422 28.858 12.8247 29.5793 14.016 30.0714C15.2073 30.5634 16.4842 30.8167 17.7736 30.8167C19.0631 30.8167 20.3399 30.5635 21.5312 30.0714C22.7225 29.5793 23.805 28.858 24.7168 27.9487C25.6285 27.0395 26.3518 25.9601 26.8453 24.7721C27.1911 23.9394 27.4193 23.0648 27.5249 22.1735C27.6079 21.4729 27.9917 20.8259 28.6231 20.5112L30.4901 19.5802C31.1214 19.2654 31.5356 18.6184 31.4526 17.9179C31.3471 17.0264 31.1188 16.1519 30.7729 15.3193C30.2795 14.1313 29.5562 13.0518 28.6445 12.1425C27.7326 11.2333 26.6502 10.512 25.4589 10.0199C24.2675 9.52781 22.9907 9.27454 21.7013 9.27454ZM26.2371 17.1928C26.3361 17.4311 26.4158 17.6762 26.4757 17.9259C26.6405 18.6117 26.2118 19.2654 25.5805 19.5802L23.7135 20.5112C23.0821 20.8259 22.7128 21.4795 22.5481 22.1655C22.4881 22.4151 22.4085 22.6602 22.3095 22.8984C22.0627 23.4925 21.7011 24.0322 21.2452 24.4868C20.7893 24.9415 20.2481 25.302 19.6525 25.5481C19.0567 25.7941 18.4183 25.9208 17.7736 25.9208C17.1289 25.9208 16.4905 25.7941 15.8948 25.5481C15.2991 25.302 14.7579 24.9415 14.302 24.4868C13.8461 24.0322 13.4845 23.4925 13.2378 22.8984C13.1388 22.6602 13.0591 22.4151 12.9991 22.1655C12.8344 21.4795 13.2631 20.8259 13.8943 20.5112L15.7614 19.5802C16.3927 19.2654 16.762 18.6117 16.9268 17.9259C16.9868 17.6762 17.0665 17.4311 17.1654 17.1928C17.4122 16.5989 17.7738 16.0592 18.2297 15.6045C18.6856 15.1499 19.2268 14.7892 19.8224 14.5432C20.4181 14.2971 21.0565 14.1705 21.7013 14.1705C22.346 14.1705 22.9845 14.2971 23.5801 14.5432C24.1757 14.7892 24.7169 15.1499 25.1728 15.6045C25.6287 16.0592 25.9904 16.5989 26.2371 17.1928Z" fill="#FF5722"/>
<path fill-rule="evenodd" clip-rule="evenodd" d="M21.7013 1.44099C19.3802 1.44099 17.0819 1.89689 14.9375 2.78265C12.7932 3.66842 10.8448 4.96669 9.20353 6.60337C7.56231 8.24004 6.26043 10.1831 5.3722 12.3215C4.63145 14.1048 4.19051 15.995 4.0645 17.916C4.01833 18.6199 3.62784 19.2654 2.99653 19.5802L1.12945 20.5112C0.498142 20.826 0.0906839 21.4713 0.136856 22.1753C0.262861 24.0963 0.703806 25.9864 1.44455 27.7698C2.33277 29.9082 3.63466 31.8513 5.27589 33.4879C6.91711 35.1246 8.86552 36.4229 11.0099 37.3086C13.1542 38.1944 15.4525 38.6503 17.7735 38.6503C20.0947 38.6503 22.3929 38.1944 24.5373 37.3086C26.6816 36.4229 28.6301 35.1246 30.2713 33.4879C31.9125 31.8513 33.2144 29.9082 34.1027 27.7698C34.8434 25.9864 35.2843 24.0963 35.4103 22.1753C35.4565 21.4713 35.8469 20.8259 36.4783 20.5112L38.3454 19.5802C38.9767 19.2654 39.3841 18.6199 39.338 17.916C39.212 15.995 38.771 14.1048 38.0303 12.3215C37.142 10.1831 35.8401 8.24005 34.1989 6.60337C32.5577 4.96669 30.6093 3.66842 28.465 2.78266C26.3206 1.89689 24.0223 1.44099 21.7013 1.44099ZM30.4863 22.1745C30.5502 21.472 30.9374 20.8259 31.5687 20.5112L33.4358 19.5802C34.0671 19.2654 34.4778 18.6193 34.4139 17.9167C34.2977 16.6393 33.9883 15.3843 33.4945 14.1951C32.8529 12.6507 31.9127 11.2473 30.7273 10.0653C29.542 8.8833 28.1348 7.94565 26.5861 7.30593C25.0375 6.66621 23.3775 6.33696 21.7013 6.33696C20.0249 6.33696 18.3651 6.66621 16.8163 7.30593C15.2676 7.94564 13.8604 8.8833 12.6751 10.0653C11.4898 11.2473 10.5495 12.6507 9.90805 14.1951C9.4141 15.3843 9.10472 16.6393 8.98855 17.9167C8.92466 18.6193 8.5374 19.2654 7.90609 19.5802L6.03901 20.5112C5.4077 20.826 4.997 21.472 5.06089 22.1745C5.17708 23.4521 5.48644 24.707 5.98039 25.8962C6.62189 27.4406 7.56214 28.8439 8.74747 30.026C9.9328 31.208 11.34 32.1457 12.8887 32.7854C14.4374 33.4251 16.0973 33.7543 17.7735 33.7543C19.4499 33.7543 21.1098 33.4251 22.6585 32.7854C24.2072 32.1457 25.6144 31.208 26.7997 30.026C27.9851 28.8439 28.9253 27.4406 29.5668 25.8962C30.0607 24.707 30.3701 23.4521 30.4863 22.1745Z" fill="#FF5722"/>
<path d="M39.3706 18.6675H34.4592C34.4571 18.9179 34.3101 19.1442 34.0844 19.2567L30.92 20.8346C30.6944 20.9471 30.5504 21.1734 30.5327 21.4238H35.444C35.4595 21.1734 35.604 20.9471 35.8296 20.8346L38.994 19.2567C39.2196 19.1443 39.3662 18.918 39.3706 18.6675Z" fill="#B92B09"/>
<path d="M0.104004 21.4238H5.01531C5.01746 21.1734 5.16446 20.9471 5.39008 20.8346L8.55455 19.2567C8.78017 19.1442 8.92416 18.9179 8.94187 18.6675H4.03056C4.01501 18.918 3.8706 19.1443 3.64499 19.2567L0.480516 20.8346C0.254906 20.9471 0.108326 21.1734 0.104004 21.4238Z" fill="#B92B09"/>
<path d="M11.89 18.6675C11.8699 18.9178 11.7264 19.1442 11.5008 19.2567L8.33627 20.8346C8.11063 20.9471 7.96318 21.1735 7.96338 21.4238H12.8811C12.8706 21.174 13.0201 20.9472 13.2458 20.8346L16.4103 19.2567C16.636 19.1442 16.7777 18.9173 16.8077 18.6675H11.89Z" fill="#B92B09"/>
<path d="M26.5941 18.6675C26.6045 18.9173 26.4551 19.1442 26.2293 19.2567L23.0649 20.8346C22.8391 20.9472 22.6975 21.174 22.6675 21.4238H27.5852C27.6052 21.1735 27.7488 20.9471 27.9745 20.8346L31.1389 19.2567C31.3645 19.1442 31.5119 18.9178 31.5118 18.6675H26.5941Z" fill="#B92B09"/>
<path d="M57.776 27.812C56.736 27.812 55.808 27.708 54.992 27.5C54.176 27.308 53.48 27.004 52.904 26.588C52.344 26.156 51.912 25.636 51.608 25.028C51.304 24.404 51.144 23.676 51.128 22.844L53.816 22.052C53.8 22.82 53.96 23.46 54.296 23.972C54.632 24.468 55.112 24.836 55.736 25.076C56.376 25.316 57.104 25.436 57.92 25.436C58.704 25.436 59.36 25.34 59.888 25.148C60.432 24.956 60.84 24.7 61.112 24.38C61.384 24.044 61.52 23.668 61.52 23.252C61.52 22.788 61.352 22.42 61.016 22.148C60.68 21.86 60.224 21.628 59.648 21.452C59.088 21.26 58.448 21.084 57.728 20.924C56.944 20.748 56.176 20.556 55.424 20.348C54.688 20.14 54.016 19.86 53.408 19.508C52.8 19.156 52.312 18.708 51.944 18.164C51.592 17.604 51.416 16.9 51.416 16.052C51.416 15.092 51.656 14.268 52.136 13.58C52.616 12.876 53.312 12.332 54.224 11.948C55.152 11.548 56.256 11.348 57.536 11.348C58.8 11.348 59.904 11.54 60.848 11.924C61.792 12.292 62.528 12.836 63.056 13.556C63.584 14.276 63.864 15.124 63.896 16.1L61.136 16.868C61.136 16.34 61.048 15.884 60.872 15.5C60.712 15.1 60.472 14.772 60.152 14.516C59.832 14.244 59.448 14.044 59 13.916C58.568 13.788 58.072 13.724 57.512 13.724C56.856 13.724 56.28 13.812 55.784 13.988C55.304 14.164 54.936 14.412 54.68 14.732C54.424 15.036 54.296 15.396 54.296 15.812C54.296 16.324 54.488 16.732 54.872 17.036C55.256 17.34 55.76 17.588 56.384 17.78C57.024 17.956 57.72 18.132 58.472 18.308C59.16 18.452 59.848 18.628 60.536 18.836C61.24 19.044 61.888 19.316 62.48 19.652C63.072 19.988 63.544 20.444 63.896 21.02C64.264 21.58 64.448 22.292 64.448 23.156C64.448 24.084 64.2 24.9 63.704 25.604C63.208 26.308 62.464 26.852 61.472 27.236C60.48 27.62 59.248 27.812 57.776 27.812ZM69.8471 27.812C69.1591 27.812 68.5431 27.684 67.9991 27.428C67.4551 27.156 67.0231 26.756 66.7031 26.228C66.3991 25.7 66.2471 25.044 66.2471 24.26C66.2471 23.604 66.3671 23.044 66.6071 22.58C66.8631 22.116 67.2391 21.74 67.7351 21.452C68.2311 21.148 68.8471 20.9 69.5831 20.708C70.3191 20.5 71.1831 20.324 72.1751 20.18C72.7191 20.1 73.1591 20.02 73.4951 19.94C73.8471 19.86 74.1031 19.74 74.2631 19.58C74.4231 19.404 74.5031 19.148 74.5031 18.812C74.5031 18.316 74.3271 17.892 73.9751 17.54C73.6391 17.172 73.0871 16.988 72.3191 16.988C71.8551 16.988 71.4071 17.068 70.9751 17.228C70.5591 17.388 70.1991 17.644 69.8951 17.996C69.5911 18.332 69.3831 18.78 69.2711 19.34L66.5591 18.5C66.7351 17.86 66.9911 17.308 67.3271 16.844C67.6631 16.364 68.0791 15.956 68.5751 15.62C69.0711 15.284 69.6391 15.036 70.2791 14.876C70.9191 14.716 71.6231 14.636 72.3911 14.636C73.5591 14.636 74.5191 14.828 75.2711 15.212C76.0231 15.58 76.5831 16.164 76.9511 16.964C77.3191 17.748 77.5031 18.764 77.5031 20.012V22.364C77.5031 22.908 77.5111 23.476 77.5271 24.068C77.5591 24.644 77.5911 25.228 77.6231 25.82C77.6711 26.396 77.7271 26.956 77.7911 27.5H75.0791C75.0151 27.052 74.9591 26.572 74.9111 26.06C74.8631 25.548 74.8231 25.028 74.7911 24.5H74.4071C74.1831 25.108 73.8631 25.668 73.4471 26.18C73.0311 26.676 72.5191 27.076 71.9111 27.38C71.3191 27.668 70.6311 27.812 69.8471 27.812ZM71.0471 25.58C71.3671 25.58 71.6871 25.524 72.0071 25.412C72.3431 25.3 72.6711 25.132 72.9911 24.908C73.3111 24.684 73.6071 24.412 73.8791 24.092C74.1511 23.756 74.3831 23.364 74.5751 22.916L74.5271 20.78L75.1031 20.876C74.8311 21.1 74.4951 21.276 74.0951 21.404C73.6951 21.532 73.2711 21.628 72.8231 21.692C72.3911 21.756 71.9511 21.836 71.5031 21.932C71.0711 22.012 70.6791 22.124 70.3271 22.268C69.9751 22.396 69.6951 22.588 69.4871 22.844C69.2791 23.084 69.1751 23.42 69.1751 23.852C69.1751 24.396 69.3511 24.82 69.7031 25.124C70.0551 25.428 70.5031 25.58 71.0471 25.58ZM83.0236 27.5L78.7276 14.972H82.0876L84.9916 25.076H85.3516L88.2556 14.972H91.5196L87.1996 27.5H83.0236ZM93.2259 27.5V14.948H96.2499V27.5H93.2259ZM94.7379 12.98C94.1299 12.98 93.6579 12.852 93.3219 12.596C93.0019 12.324 92.8419 11.94 92.8419 11.444C92.8419 10.948 93.0019 10.572 93.3219 10.316C93.6579 10.044 94.1299 9.908 94.7379 9.908C95.3779 9.908 95.8579 10.036 96.1779 10.292C96.4979 10.548 96.6579 10.932 96.6579 11.444C96.6579 11.94 96.4899 12.324 96.1539 12.596C95.8339 12.852 95.3619 12.98 94.7379 12.98ZM99.3477 27.5V19.844V14.948H101.868L101.796 18.788H102.228C102.452 17.844 102.748 17.068 103.116 16.46C103.5 15.852 103.988 15.396 104.58 15.092C105.172 14.788 105.86 14.636 106.644 14.636C108.068 14.636 109.148 15.14 109.884 16.148C110.636 17.156 111.012 18.716 111.012 20.828V27.5H107.964V21.14C107.964 19.78 107.756 18.788 107.34 18.164C106.94 17.524 106.34 17.204 105.54 17.204C104.868 17.204 104.3 17.42 103.836 17.852C103.372 18.268 103.012 18.828 102.756 19.532C102.516 20.22 102.388 20.98 102.372 21.812V27.5H99.3477ZM118.779 31.82C117.419 31.82 116.299 31.716 115.419 31.508C114.555 31.3 113.915 30.988 113.499 30.572C113.083 30.156 112.875 29.644 112.875 29.036C112.875 28.3 113.163 27.7 113.739 27.236C114.331 26.756 115.203 26.46 116.355 26.348V25.868C115.491 25.884 114.835 25.796 114.387 25.604C113.939 25.396 113.715 25.068 113.715 24.62C113.715 24.188 113.931 23.804 114.363 23.468C114.811 23.132 115.547 22.852 116.571 22.628V22.148C115.595 22.1 114.835 21.796 114.291 21.236C113.747 20.66 113.475 19.916 113.475 19.004C113.475 18.188 113.699 17.468 114.147 16.844C114.595 16.22 115.251 15.732 116.115 15.38C116.995 15.012 118.059 14.828 119.307 14.828H125.523V17.228L121.587 16.652V17.18C122.579 17.34 123.307 17.62 123.771 18.02C124.251 18.42 124.491 18.964 124.491 19.652C124.491 20.308 124.283 20.892 123.867 21.404C123.451 21.9 122.843 22.292 122.043 22.58C121.259 22.852 120.307 22.988 119.187 22.988C118.979 22.988 118.755 22.98 118.515 22.964C118.275 22.948 117.899 22.908 117.387 22.844C117.051 23.084 116.779 23.3 116.571 23.492C116.363 23.668 116.259 23.836 116.259 23.996C116.259 24.124 116.339 24.236 116.499 24.332C116.659 24.412 116.867 24.468 117.123 24.5C117.379 24.532 117.627 24.548 117.867 24.548H121.203C121.523 24.548 121.931 24.572 122.427 24.62C122.939 24.668 123.443 24.796 123.939 25.004C124.451 25.212 124.875 25.54 125.211 25.988C125.563 26.436 125.739 27.068 125.739 27.884C125.739 28.796 125.475 29.54 124.947 30.116C124.435 30.708 123.659 31.14 122.619 31.412C121.595 31.684 120.315 31.82 118.779 31.82ZM119.043 29.372C120.035 29.372 120.827 29.316 121.419 29.204C122.011 29.092 122.435 28.908 122.691 28.652C122.947 28.412 123.075 28.1 123.075 27.716C123.075 27.364 122.995 27.092 122.835 26.9C122.675 26.692 122.467 26.548 122.211 26.468C121.971 26.388 121.723 26.34 121.467 26.324C121.211 26.308 120.995 26.3 120.819 26.3H117.867C117.099 26.412 116.555 26.628 116.235 26.948C115.931 27.268 115.779 27.62 115.779 28.004C115.779 28.388 115.907 28.676 116.163 28.868C116.419 29.076 116.787 29.212 117.267 29.276C117.763 29.34 118.355 29.372 119.043 29.372ZM119.115 21.332C119.947 21.332 120.579 21.14 121.011 20.756C121.443 20.356 121.659 19.836 121.659 19.196C121.659 18.508 121.435 17.948 120.987 17.516C120.555 17.068 119.923 16.844 119.091 16.844C118.259 16.844 117.611 17.06 117.147 17.492C116.699 17.924 116.475 18.476 116.475 19.148C116.475 19.58 116.571 19.964 116.763 20.3C116.971 20.62 117.267 20.876 117.651 21.068C118.051 21.244 118.539 21.332 119.115 21.332ZM132.753 27.812C131.905 27.812 131.137 27.724 130.449 27.548C129.777 27.388 129.201 27.156 128.721 26.852C128.241 26.532 127.857 26.156 127.569 25.724C127.281 25.276 127.105 24.78 127.041 24.236L129.417 23.348C129.449 23.764 129.609 24.14 129.897 24.476C130.185 24.796 130.585 25.052 131.097 25.244C131.609 25.436 132.225 25.532 132.945 25.532C133.745 25.532 134.361 25.412 134.793 25.172C135.241 24.916 135.465 24.556 135.465 24.092C135.465 23.756 135.345 23.492 135.105 23.3C134.865 23.092 134.513 22.924 134.049 22.796C133.601 22.652 133.057 22.516 132.417 22.388C131.825 22.26 131.225 22.116 130.617 21.956C130.025 21.78 129.473 21.556 128.961 21.284C128.465 20.996 128.057 20.628 127.737 20.18C127.433 19.716 127.281 19.132 127.281 18.428C127.281 17.66 127.481 16.996 127.881 16.436C128.297 15.876 128.889 15.436 129.657 15.116C130.441 14.796 131.385 14.636 132.489 14.636C133.529 14.636 134.425 14.78 135.177 15.068C135.945 15.356 136.569 15.772 137.049 16.316C137.529 16.844 137.833 17.476 137.961 18.212L135.465 19.004C135.417 18.556 135.265 18.18 135.009 17.876C134.753 17.556 134.409 17.316 133.977 17.156C133.545 16.996 133.041 16.916 132.465 16.916C131.729 16.916 131.153 17.044 130.737 17.3C130.321 17.556 130.113 17.9 130.113 18.332C130.113 18.684 130.241 18.964 130.497 19.172C130.769 19.38 131.137 19.548 131.601 19.676C132.081 19.804 132.625 19.932 133.233 20.06C133.873 20.188 134.489 20.34 135.081 20.516C135.689 20.676 136.233 20.892 136.713 21.164C137.193 21.436 137.577 21.796 137.865 22.244C138.153 22.676 138.297 23.236 138.297 23.924C138.297 24.756 138.073 25.468 137.625 26.06C137.177 26.636 136.537 27.076 135.705 27.38C134.889 27.668 133.905 27.812 132.753 27.812ZM149.441 27.5V11.66H152.489V27.5H149.441ZM144.737 14.228V11.66H157.217V14.228H144.737ZM158.504 27.5V21.212V14.948H161.048L161 19.268H161.432C161.576 18.244 161.8 17.396 162.104 16.724C162.408 16.036 162.832 15.524 163.376 15.188C163.92 14.836 164.592 14.66 165.392 14.66C165.552 14.66 165.72 14.668 165.896 14.684C166.088 14.7 166.296 14.74 166.52 14.804L166.4 17.996C166.144 17.9 165.88 17.836 165.608 17.804C165.352 17.756 165.112 17.732 164.888 17.732C164.264 17.732 163.72 17.892 163.256 18.212C162.808 18.532 162.44 18.988 162.152 19.58C161.88 20.156 161.672 20.844 161.528 21.644V27.5H158.504ZM171.046 27.812C170.358 27.812 169.742 27.684 169.198 27.428C168.654 27.156 168.222 26.756 167.902 26.228C167.598 25.7 167.446 25.044 167.446 24.26C167.446 23.604 167.566 23.044 167.806 22.58C168.062 22.116 168.438 21.74 168.934 21.452C169.43 21.148 170.046 20.9 170.782 20.708C171.518 20.5 172.382 20.324 173.374 20.18C173.918 20.1 174.358 20.02 174.694 19.94C175.046 19.86 175.302 19.74 175.462 19.58C175.622 19.404 175.702 19.148 175.702 18.812C175.702 18.316 175.526 17.892 175.174 17.54C174.838 17.172 174.286 16.988 173.518 16.988C173.054 16.988 172.606 17.068 172.174 17.228C171.758 17.388 171.398 17.644 171.094 17.996C170.79 18.332 170.582 18.78 170.47 19.34L167.758 18.5C167.934 17.86 168.19 17.308 168.526 16.844C168.862 16.364 169.278 15.956 169.774 15.62C170.27 15.284 170.838 15.036 171.478 14.876C172.118 14.716 172.822 14.636 173.59 14.636C174.758 14.636 175.718 14.828 176.47 15.212C177.222 15.58 177.782 16.164 178.15 16.964C178.518 17.748 178.702 18.764 178.702 20.012V22.364C178.702 22.908 178.71 23.476 178.726 24.068C178.758 24.644 178.79 25.228 178.822 25.82C178.87 26.396 178.926 26.956 178.99 27.5H176.278C176.214 27.052 176.158 26.572 176.11 26.06C176.062 25.548 176.022 25.028 175.99 24.5H175.606C175.382 25.108 175.062 25.668 174.646 26.18C174.23 26.676 173.718 27.076 173.11 27.38C172.518 27.668 171.83 27.812 171.046 27.812ZM172.246 25.58C172.566 25.58 172.886 25.524 173.206 25.412C173.542 25.3 173.87 25.132 174.19 24.908C174.51 24.684 174.806 24.412 175.078 24.092C175.35 23.756 175.582 23.364 175.774 22.916L175.726 20.78L176.302 20.876C176.03 21.1 175.694 21.276 175.294 21.404C174.894 21.532 174.47 21.628 174.022 21.692C173.59 21.756 173.15 21.836 172.702 21.932C172.27 22.012 171.878 22.124 171.526 22.268C171.174 22.396 170.894 22.588 170.686 22.844C170.478 23.084 170.374 23.42 170.374 23.852C170.374 24.396 170.55 24.82 170.902 25.124C171.254 25.428 171.702 25.58 172.246 25.58ZM187.31 27.812C186.222 27.812 185.278 27.652 184.478 27.332C183.694 27.012 183.038 26.564 182.51 25.988C181.998 25.396 181.614 24.708 181.358 23.924C181.102 23.14 180.974 22.292 180.974 21.38C180.974 20.404 181.102 19.508 181.358 18.692C181.63 17.876 182.03 17.164 182.558 16.556C183.086 15.948 183.734 15.476 184.502 15.14C185.286 14.804 186.182 14.636 187.19 14.636C188.198 14.636 189.07 14.804 189.806 15.14C190.558 15.476 191.166 15.948 191.63 16.556C192.094 17.148 192.406 17.844 192.566 18.644L189.734 19.532C189.702 19.052 189.574 18.628 189.35 18.26C189.126 17.876 188.822 17.58 188.438 17.372C188.054 17.164 187.598 17.06 187.07 17.06C186.558 17.06 186.11 17.164 185.726 17.372C185.358 17.564 185.046 17.844 184.79 18.212C184.55 18.58 184.358 19.028 184.214 19.556C184.086 20.068 184.022 20.644 184.022 21.284C184.022 22.164 184.142 22.916 184.382 23.54C184.622 24.164 184.99 24.652 185.486 25.004C185.982 25.34 186.598 25.508 187.334 25.508C187.99 25.508 188.518 25.388 188.918 25.148C189.334 24.892 189.646 24.564 189.854 24.164C190.078 23.764 190.214 23.324 190.262 22.844L192.95 23.444C192.854 24.1 192.67 24.692 192.398 25.22C192.126 25.748 191.75 26.212 191.27 26.612C190.806 26.996 190.246 27.292 189.59 27.5C188.934 27.708 188.174 27.812 187.31 27.812ZM194.799 27.5V10.436H197.775V20.012C198.319 19.676 198.839 19.308 199.335 18.908C199.831 18.492 200.287 18.06 200.703 17.612C201.119 17.164 201.487 16.716 201.807 16.268C202.127 15.804 202.391 15.364 202.599 14.948H206.079C205.823 15.572 205.487 16.188 205.071 16.796C204.655 17.404 204.167 17.964 203.607 18.476C203.063 18.988 202.447 19.436 201.759 19.82C201.071 20.188 200.335 20.444 199.551 20.588V20.924C200.543 20.78 201.375 20.828 202.047 21.068C202.719 21.308 203.287 21.668 203.751 22.148C204.215 22.628 204.599 23.188 204.903 23.828C205.223 24.452 205.519 25.092 205.791 25.748L206.415 27.5H203.079L202.695 26.348C202.391 25.548 202.071 24.844 201.735 24.236C201.415 23.612 201.007 23.132 200.511 22.796C200.031 22.444 199.407 22.268 198.639 22.268H197.775V27.5H194.799ZM213.687 27.812C212.679 27.812 211.775 27.668 210.975 27.38C210.191 27.092 209.527 26.676 208.983 26.132C208.439 25.572 208.023 24.9 207.735 24.116C207.447 23.332 207.303 22.444 207.303 21.452C207.303 20.46 207.439 19.548 207.711 18.716C207.999 17.884 208.407 17.164 208.935 16.556C209.463 15.948 210.103 15.476 210.855 15.14C211.623 14.804 212.495 14.636 213.471 14.636C214.383 14.636 215.199 14.788 215.919 15.092C216.639 15.396 217.247 15.852 217.743 16.46C218.239 17.052 218.607 17.796 218.847 18.692C219.087 19.572 219.167 20.596 219.087 21.764L209.271 21.836V20.084L217.335 20.012L216.279 20.996C216.375 20.084 216.303 19.34 216.063 18.764C215.823 18.172 215.479 17.74 215.031 17.468C214.583 17.18 214.071 17.036 213.495 17.036C212.839 17.036 212.263 17.212 211.767 17.564C211.271 17.9 210.887 18.396 210.615 19.052C210.359 19.692 210.231 20.476 210.231 21.404C210.231 22.796 210.535 23.836 211.143 24.524C211.767 25.212 212.615 25.556 213.687 25.556C214.167 25.556 214.567 25.5 214.887 25.388C215.223 25.26 215.503 25.1 215.727 24.908C215.951 24.7 216.127 24.468 216.255 24.212C216.399 23.956 216.511 23.684 216.591 23.396L219.231 23.996C219.103 24.588 218.895 25.116 218.607 25.58C218.319 26.044 217.943 26.444 217.479 26.78C217.031 27.116 216.495 27.372 215.871 27.548C215.247 27.724 214.519 27.812 213.687 27.812ZM221.551 27.5V21.212V14.948H224.095L224.047 19.268H224.479C224.623 18.244 224.847 17.396 225.151 16.724C225.455 16.036 225.879 15.524 226.423 15.188C226.967 14.836 227.639 14.66 228.439 14.66C228.599 14.66 228.767 14.668 228.943 14.684C229.135 14.7 229.343 14.74 229.567 14.804L229.447 17.996C229.191 17.9 228.927 17.836 228.655 17.804C228.399 17.756 228.159 17.732 227.935 17.732C227.311 17.732 226.767 17.892 226.303 18.212C225.855 18.532 225.487 18.988 225.199 19.58C224.927 20.156 224.719 20.844 224.575 21.644V27.5H221.551Z" fill="white"/>
</svg>
